<?xml version="1.0" standalone="no"?>
<svg viewBox="0 0 200 200" xmlns="http://www.w3.org/2000/svg">
  <path fill="#F43F5E" d="M45,-67.7C59,-61,71.5,-49.7,75.7,-35.9C79.9,-22.1,75.9,-5.9,71.5,8.8C67.1,23.5,62.4,36.7,54.8,50.1C47.3,63.4,36.9,77,22.9,83.7C8.9,90.4,-8.8,90.3,-24.5,85C-40.1,79.6,-53.8,69,-63.1,56C-72.3,42.9,-77.2,27.3,-79,11.7C-80.7,-4,-79.4,-19.8,-73.2,-33.4C-67,-47,-55.9,-58.3,-42.9,-65.5C-29.9,-72.6,-14.9,-75.5,0.3,-75.9C15.5,-76.4,31,-74.4,45,-67.7Z" transform="translate(100 100)" />
</svg>
